<?xml version="1.0" encoding="utf-8"?>
<!-- Generator: Adobe Illustrator 27.3.1, SVG Export Plug-In . SVG Version: 6.00 Build 0)  -->
<svg version="1.1" id="Lager_1" xmlns="http://www.w3.org/2000/svg" xmlns:xlink="http://www.w3.org/1999/xlink" x="0px" y="0px"
	 viewBox="0 0 30 45" style="enable-background:new 0 0 30 45;" xml:space="preserve">
<style type="text/css">
	.st0{opacity:0.1;fill:#FFFFFF;enable-background:new    ;}
	.st1{opacity:0.25;}
	.st2{opacity:0.6;fill:#B3B3B3;enable-background:new    ;}
	.st3{fill:#808080;}
	.st4{fill:#999999;}
	.st5{fill:#333333;}
	.st6{fill:#666666;}
	.st7{fill:#FFFFFF;stroke:#949290;stroke-miterlimit:9.99;}
</style>
<circle class="st0" cx="15.4" cy="14.4" r="5.3"/>
<g class="st1">
	<path class="st2" d="M14.7,20.9h1.8c3.4,0,6.7,0.5,9.9,1.6c1.1,0.5,2.1,1.1,3.1,1.8c0.7,0.6,1.1,1.5,1.1,2.4
		c0.2,3.1-0.8,6.1-2.7,8.4c-0.7,0.9-0.9,2.4-1.6,2.7c-1,0.4-1.8,1.3-2.2,2.4c-2.4,1.1-3.7,3.3-6.6,3.7c-2,0.4-4.2,0-5.9-1.3
		c-3.3-2.4-6.2-5.3-8.8-8.4c-0.7-2.6-2.9-4.4-2.4-7.3c0.2-0.5,0-1.5,0.4-1.8c0.7-1,1.6-1.9,2.7-2.4C7,21.3,10.8,20.6,14.7,20.9z"/>
	<path class="st3" d="M27.1,33.3c0,0.4,0.2,0.7,0,0.9l-3.7,4.4c-0.5,0.8-1.1,1.5-1.6,2.2l-2.2,1.6c-0.5,0.4-1,0.8-1.6,0.9
		c-1.5,0.5-3.2,0.3-4.6-0.5c-1.6-1-3.1-2.1-4.6-3.3l-1.1-1.6c-0.9-1.6-2.6-2.7-3.1-4.6c-2.6-6.6-0.2-7.5,4.2-8.8
		c5.1-1.5,10.6-1.4,15.6,0.4c3.3,1.1,4.2,2.7,3.3,6.4C27.6,32,27.4,32.7,27.1,33.3z"/>
	<path class="st4" d="M27.1,33.3c0.2-1.1,0-2,0.2-3.1c0.2-1.4-0.6-2.8-1.8-3.5c-2.6-1.3-5.5-2.2-8.4-2.4c-3.7-0.2-7.4,0.6-10.6,2.4
		c-1.3,0.5-2.1,1.8-2,3.1v3.5c-1.8-0.7-1.6-2.7-2.2-4.2c-0.2-0.9,0-1.9,0.4-2.7c0.7-2,2.6-2,4-2.6c1.8-0.7,3.7-1.1,5.7-1.3h6.2
		c2.9,0.2,5.8,1,8.4,2.4c1.3,0.7,1.5,2,2.4,2.9v0.5C28.2,30,28.6,32,27.1,33.3z"/>
	<path class="st5" d="M22.9,37c-1,1.6-2.2,3.1-3.5,4.4c-2.3,1.9-5.7,1.6-7.7-0.5c-0.5-0.4-1-0.9-1.3-1.5c-0.5-1.1-2-1.6-2.2-3.1
		c-1.1-3.8-0.4-4.9,3.1-6.2c2.7-0.9,5.6-1.1,8.4-0.4C24,30.9,24.7,32.8,22.9,37z"/>
	<path class="st6" d="M22.9,37v-2.7c0.2-1.2-0.5-2.4-1.6-2.7c-1.6-0.7-3.5-0.4-5.1-1.3c-1.8,0.7-3.8,0.5-5.7,1.5
		c-1.8,0.8-2.8,2.7-2.4,4.6c-0.9-0.7-1.5-1.8-1.6-2.9c-0.7-2.4,0.4-3.8,2.7-4.8c1-0.5,2.2-0.9,3.3-1.1c2.1-0.2,4.2-0.2,6.2,0
		c2,0.2,3.9,1.1,5.5,2.4c0.9,0.7,1.3,1.8,1.1,2.9c-0.4,1.3-0.9,2.6-1.5,3.8C23.8,36.8,23.3,36.8,22.9,37z"/>
	<path d="M15.6,34.4c1-0.2,1.9,0,2.7,0.5c2.2,1.5,2.6,1.8,1.5,3.8c-0.7,1.3-1.6,2.4-2.6,3.5c-0.6,0.4-1.3,0.6-2,0.5
		c-1.1,0-1.5-0.5-2.2-0.9c-0.7-0.6-1.3-1.4-1.6-2.2c-0.9-1.8-0.9-3.8,1.1-4.6C13.4,34.7,14.5,34.4,15.6,34.4z"/>
</g>
<path class="st7" d="M28.6,14.3c0,7.5-13.2,26.9-13.2,26.9S1.5,21.6,1.5,14.3C1.5,6.8,7.5,0.7,15,0.7C22.5,0.7,28.6,6.8,28.6,14.3z
	 M15.4,9.1c-2.9,0-5.3,2.4-5.3,5.3s2.4,5.3,5.3,5.3s5.3-2.4,5.3-5.3l0,0l0,0C20.7,11.5,18.3,9.1,15.4,9.1z"/>
</svg>
