<?xml version="1.0" encoding="UTF-8"?>
<svg id="Lager_1" data-name="Lager 1" xmlns="http://www.w3.org/2000/svg" width="383.42" height="383.44" viewBox="0 0 383.42 383.44">
  <defs>
    <style>
      .cls-1 {
        fill: #fff;
      }
    </style>
  </defs>
  <path class="cls-1" d="m0,19.65c2.61-4.27,4.58-9.16,7.97-12.69C16.4-1.82,30.42-2.23,39.99,5.36c1.66,1.31,3.18,2.81,4.67,4.3,48,47.97,95.99,95.94,143.97,143.92.88.88,1.65,1.87,2.77,3.16,1.35-1.28,2.41-2.25,3.42-3.26,48.26-48.24,96.5-96.48,144.76-144.72,8.86-8.85,19.48-11.08,29.63-6.31,14.44,6.79,18.79,25.58,8.74,37.99-1.41,1.74-3.01,3.33-4.6,4.91-47.54,47.54-95.08,95.08-142.65,142.6-1.14,1.14-2.49,2.09-4.09,3.42,1.44,1.51,2.4,2.58,3.42,3.6,48.16,48.16,96.3,96.33,144.52,144.43,6.84,6.83,10.33,14.67,8.25,24.28-2.13,9.86-8.34,16.16-18.03,19.01-.58.17-1.1.49-1.66.75h-9.73c-7.81-2.34-13.23-7.93-18.77-13.48-46.53-46.62-93.14-93.17-139.72-139.74-1.03-1.02-2.09-2-3.73-3.56-1.15,1.48-1.95,2.78-3,3.83-46.39,46.41-92.82,92.79-139.18,139.23-5.63,5.64-11.09,11.38-19.04,13.73h-10.48c-4.42-2.77-9.39-4.97-13.08-8.5C3.45,372.14,2.07,367.7,0,363.98c0-3.49,0-6.99,0-10.48,2.34-7.65,7.74-13.05,13.22-18.51,46.73-46.61,93.38-93.29,140.05-139.96,1.03-1.03,2.01-2.1,3.58-3.74-1.47-1.14-2.77-1.94-3.82-2.99C106.5,141.84,60.03,95.33,13.49,48.89,7.93,43.35,2.31,37.96,0,30.13v-10.48Z"/>
  <path class="cls-1" d="m0,363.98c2.07,3.72,3.45,8.16,6.39,10.97,3.69,3.53,8.66,5.73,13.08,8.5H0c0-6.49,0-12.97,0-19.46Z"/>
</svg>