<?xml version="1.0" encoding="UTF-8"?>
<svg id="Lager_1" data-name="Lager 1" xmlns="http://www.w3.org/2000/svg" width="408.94" height="408.56" viewBox="0 0 408.94 408.56">
  <defs>
    <style>
      .cls-1 {
        fill: #fff;
      }
    </style>
  </defs>
  <path class="cls-1" d="m0,279.2v-6.39c2.13-4.48,5.86-7.22,10-9.73,11.11-6.76,22.09-13.74,33.12-20.65,1.14-.72,2.23-1.52,3.67-2.51-12.65-7.88-24.65-15.47-36.78-22.85C5.87,214.55,2.16,211.8,0,207.34v-6.39c2.09-4.33,5.63-7.1,9.67-9.54,9.43-5.7,18.71-11.63,28.05-17.47,2.89-1.81,5.77-3.62,9.06-5.68-1.51-1.03-2.54-1.79-3.62-2.47-11.03-6.89-22.02-13.85-33.15-20.59C5.87,142.7,2.16,139.93,0,135.48,0,133.35,0,131.22,0,129.09c2.45-2.68,4.45-6.06,7.41-7.93C70.31,81.56,133.34,42.15,196.3,2.63c5.62-3.53,10.74-3.49,16.35.03,62.95,39.52,125.97,78.95,188.95,118.44,9.77,6.13,9.78,16.2.07,22.31-11.93,7.5-23.93,14.91-35.89,22.37-1.09.68-2.13,1.43-3.52,2.37,1.37.95,2.4,1.72,3.49,2.4,11.95,7.48,23.93,14.91,35.85,22.43,9.76,6.15,9.79,16.18.06,22.3-11.93,7.5-23.93,14.91-35.89,22.37-1.09.68-2.12,1.43-3.65,2.47,6.89,4.32,13.38,8.39,19.87,12.46,6.99,4.38,14.08,8.59,20.94,13.16,7.98,5.32,7.92,15.02.08,20.57-.98.69-2.02,1.28-3.03,1.92-64.11,40.11-128.22,80.23-192.33,120.34h-6.39c-2.25-1.35-4.52-2.66-6.74-4.05-61.49-38.52-122.97-77.07-184.5-115.53C5.91,286.4,2.15,283.68,0,279.2Zm34.73-147.03c1.22.84,1.84,1.31,2.5,1.72,54.85,34.14,109.72,68.26,164.53,102.46,2.22,1.38,3.66,1.04,5.67-.21,54.38-33.9,108.79-67.74,163.19-101.6,1.07-.67,2.07-1.45,3.34-2.35-1.01-.69-1.63-1.16-2.29-1.57-54.86-34.38-109.74-68.73-164.54-103.21-2.5-1.57-4.03-.79-6,.45-41.89,26.29-83.8,52.55-125.71,78.81-13.39,8.39-26.78,16.78-40.7,25.5Zm.14,143.89c1.53,1.01,2.69,1.83,3.9,2.58,54.07,33.88,108.15,67.74,162.16,101.7,2.64,1.66,4.41,1.66,7.04,0,54.01-33.96,108.1-67.82,162.16-101.7,1.2-.75,2.37-1.57,3.89-2.58-1.37-.95-2.4-1.72-3.49-2.4-9.23-5.79-18.54-11.47-27.68-17.41-2.58-1.68-4.39-1.74-7.07-.06-40.56,25.39-81.27,50.55-121.78,76.01-6.73,4.23-12.39,4.23-19.12,0-40.52-25.46-81.22-50.63-121.78-76.01-2.69-1.68-4.49-1.61-7.07.07-9.14,5.94-18.44,11.62-27.68,17.41-1.08.68-2.11,1.45-3.49,2.4Zm339.28-72.01c-10.88-6.81-21.3-13.19-31.55-19.82-2.52-1.63-4.25-1.49-6.72.06-40.59,25.37-81.3,50.55-121.83,76.02-6.72,4.22-12.38,4.3-19.13.05-40.53-25.47-81.24-50.64-121.82-76.03-2.68-1.67-4.51-1.69-7.07.05-5.61,3.8-11.45,7.26-17.2,10.86-4.56,2.86-9.13,5.71-14.07,8.8,1.61,1.07,2.67,1.82,3.77,2.51,54.18,33.73,108.37,67.45,162.5,101.25,2.47,1.54,4.19,1.63,6.72.06,54.25-33.87,108.56-67.65,162.85-101.45,1-.62,1.96-1.31,3.54-2.36Z"/>
</svg>